 
http://img11.imageshack.us/img11/222/arthurk.jpg


Verenigd Koninkrijk / Verenigde Staten
Animatie / Avontuur
97 minuten

geregisseerd door Sarah Smith
met de stemmen van Bill Nighy, James McAvoy en Hugh Laurie

Arthur houdt van alles wat met kerst te maken heeft, sterker nog: hij is de enige in zijn familie die nog steeds is gefascineerd door de ware magie van dit feest. En dat wil wat zeggen, want hij is de zoon van de kerstman! Zijn broer Steve heeft het kerstgebeuren de efficiëntie van een militaristische operatie meegegeven, terwijl de kerstman zelf alleen maar dénkt dat hij de boel runt...



Nl-ENG subs






Screenshots:
 
http://img546.imageshack.us/img546/9888/screenshot1gx.jpg 
http://img215.imageshack.us/img215/1402/screenshot2jzj.jpg 
http://img204.imageshack.us/img204/5729/screenshot3hg.jpg 
http://img685.imageshack.us/img685/4989/screenshot4yo.jpg



INFO;

Format                                   : Matroska
Format version                           : Version 2
File size                                : 2.30 GiB
Duration                                 : 1h 50mn
Overall bit rate                         : 2 966 Kbps
Encoded date                             : UTC 2012-02-19 09:56:49
Writing application                      : mkvmerge v3.3.0 ('Language') built on Mar 24 2010 14:59:24
Writing library                          : libebml v0.8.0 + libmatroska v0.9.0

Video
ID                                       : 1
Format                                   : AVC
Format/Info                              : Advanced Video Codec
Format profile                           : High@L4.1
Format settings, CABAC                   : Yes
Format settings, ReFrames                : 5 frames
Codec ID                                 : V_MPEG4/ISO/AVC
Duration                                 : 1h 50mn
Bit rate                                 : 2 542 Kbps
Width                                    : 1 280 pixels
Height                                   : 720 pixels
Display aspect ratio                     : 16:9
Frame rate                               : 23.976 fps
Color space                              : YUV
Chroma subsampling                       : 4:2:0
Bit depth                                : 8 bits
Scan type                                : Progressive
Bits/(Pixel*Frame)                       : 0.115
Stream size                              : 1.91 GiB (83%)
Writing library                          : x264 core 114 r1913 5fd3dce
Language                                 : English
Default                                  : No
Forced                                   : No

Audio
ID                                       : 2
Format                                   : AC-3
Format/Info                              : Audio Coding 3
Mode extension                           : CM (complete main)
Codec ID                                 : A_AC3
Duration                                 : 1h 50mn
Bit rate mode                            : Constant
Bit rate                                 : 448 Kbps
Channel(s)                               : 6 channels
Channel positions                        : Front: L C R, Side: L R, LFE
Sampling rate                            : 48.0 KHz
Bit depth                                : 16 bits
Compression mode                         : Lossy
Stream size                              : 355 MiB (15%)
Language                                 : English
Default                                  : No
Forced                                   : No

Text #1
ID                                       : 3
Format                                   : UTF-8
Codec ID                                 : S_TEXT/UTF8
Codec ID/Info                            : UTF-8 Plain Text
Language                                 : Dutch
Default                                  : Yes
Forced                                   : No

Text #2
ID                                       : 4
Format                                   : UTF-8
Codec ID                                 : S_TEXT/UTF8
Codec ID/Info                            : UTF-8 Plain Text
Language                                 : English
Default                                  : No
Forced                                   : No



 
http://www.imdb.com/title/tt1334512/ 
http://www.moviemeter.nl/film/71642




Deze film wordt u aangeboden door het DutchReleaseTeam.
Voor de reviews van de nieuwste films, muziek, series, games etc
ga dan eens naar http://www.hetmultimediacafe.be/